<svg version="1.1" viewBox="0.0 0.0 600.0 371.0" fill="none" stroke="none" stroke-linecap="square" stroke-miterlimit="10" width="600" height="371" xmlns:xlink="http://www.w3.org/1999/xlink" xmlns="http://www.w3.org/2000/svg"><path fill="#ffffff" d="M0 0L600.0 0L600.0 371.0L0 371.0L0 0Z" fill-rule="nonzero"/><path stroke="#333333" stroke-width="1.0" stroke-linecap="butt" d="M77.5 300.5L581.5 300.5" fill-rule="nonzero"/><path stroke="#cccccc" stroke-width="1.0" stroke-linecap="butt" d="M77.5 260.5L581.5 260.5" fill-rule="nonzero"/><path stroke="#cccccc" stroke-width="1.0" stroke-linecap="butt" d="M77.5 220.5L581.5 220.5" fill-rule="nonzero"/><path stroke="#cccccc" stroke-width="1.0" stroke-linecap="butt" d="M77.5 181.5L581.5 181.5" fill-rule="nonzero"/><path stroke="#cccccc" stroke-width="1.0" stroke-linecap="butt" d="M77.5 141.5L581.5 141.5" fill-rule="nonzero"/><path stroke="#cccccc" stroke-width="1.0" stroke-linecap="butt" d="M77.5 101.5L581.5 101.5" fill-rule="nonzero"/><path stroke="#cccccc" stroke-width="1.0" stroke-linecap="butt" d="M77.5 61.5L581.5 61.5" fill-rule="nonzero"/><clipPath id="id_0"><path d="M77.55 61.916668L581.45 61.916668L581.45 300.45L77.55 300.45L77.55 61.916668Z" clip-rule="nonzero"/></clipPath><path stroke="#4285f4" stroke-width="2.0" stroke-linecap="butt" clip-path="url(#id_0)" d="M92.37059 280.57224L122.011765 252.34578L151.65294 230.48022L181.29411 212.98778L210.93529 198.87456L240.57648 188.7369L270.21765 168.85912L299.85883 156.3361L329.5 101.07589L359.14117 95.708885L388.78235 91.137L418.42352 95.708885L448.0647 92.329666L477.70587 93.323555L507.34705 92.329666L536.9882 97.89545L566.6294 98.889336" fill-rule="nonzero"/><path fill="#4285f4" clip-path="url(#id_0)" d="M92.37059 276.07224L96.87059 280.57224L92.37059 285.07224L87.87059 280.57224Z" fill-rule="nonzero"/><path fill="#4285f4" clip-path="url(#id_0)" d="M122.011765 247.84578L126.511765 252.34578L122.011765 256.84576L117.511765 252.34578Z" fill-rule="nonzero"/><path fill="#4285f4" clip-path="url(#id_0)" d="M151.65294 225.98022L156.15294 230.48022L151.65294 234.98022L147.15294 230.48022Z" fill-rule="nonzero"/><path fill="#4285f4" clip-path="url(#id_0)" d="M181.29411 208.48778L185.79411 212.98778L181.29411 217.48778L176.79411 212.98778Z" fill-rule="nonzero"/><path fill="#4285f4" clip-path="url(#id_0)" d="M210.93529 194.37456L215.43529 198.87456L210.93529 203.37456L206.43529 198.87456Z" fill-rule="nonzero"/><path fill="#4285f4" clip-path="url(#id_0)" d="M240.57648 184.2369L245.07648 188.7369L240.57648 193.2369L236.07648 188.7369Z" fill-rule="nonzero"/><path fill="#4285f4" clip-path="url(#id_0)" d="M270.21765 164.35912L274.71765 168.85912L270.21765 173.35912L265.71765 168.85912Z" fill-rule="nonzero"/><path fill="#4285f4" clip-path="url(#id_0)" d="M299.85883 151.8361L304.35883 156.3361L299.85883 160.8361L295.35883 156.3361Z" fill-rule="nonzero"/><path fill="#4285f4" clip-path="url(#id_0)" d="M329.5 96.57589L334.0 101.07589L329.5 105.57589L325.0 101.07589Z" fill-rule="nonzero"/><path fill="#4285f4" clip-path="url(#id_0)" d="M359.14117 91.208885L363.64117 95.708885L359.14117 100.208885L354.64117 95.708885Z" fill-rule="nonzero"/><path fill="#4285f4" clip-path="url(#id_0)" d="M388.78235 86.637L393.28235 91.137L388.78235 95.637L384.28235 91.137Z" fill-rule="nonzero"/><path fill="#4285f4" clip-path="url(#id_0)" d="M418.42352 91.208885L422.92352 95.708885L418.42352 100.208885L413.92352 95.708885Z" fill-rule="nonzero"/><path fill="#4285f4" clip-path="url(#id_0)" d="M448.0647 87.829666L452.5647 92.329666L448.0647 96.829666L443.5647 92.329666Z" fill-rule="nonzero"/><path fill="#4285f4" clip-path="url(#id_0)" d="M477.70587 88.823555L482.20587 93.323555L477.70587 97.823555L473.20587 93.323555Z" fill-rule="nonzero"/><path fill="#4285f4" clip-path="url(#id_0)" d="M507.34705 87.829666L511.84705 92.329666L507.34705 96.829666L502.84705 92.329666Z" fill-rule="nonzero"/><path fill="#4285f4" clip-path="url(#id_0)" d="M536.9882 93.39545L541.4882 97.89545L536.9882 102.39545L532.4882 97.89545Z" fill-rule="nonzero"/><path fill="#4285f4" clip-path="url(#id_0)" d="M566.6294 94.389336L571.1294 98.889336L566.6294 103.389336L562.1294 98.889336Z" fill-rule="nonzero"/><path fill="#000000" d="M295.10938 349.45L295.10938 341.8719L292.28125 341.8719L292.28125 340.85626L299.09375 340.85626L299.09375 341.8719L296.25 341.8719L296.25 349.45L295.10938 349.45ZM299.79688 349.45L299.79688 340.85626L300.84375 340.85626L300.84375 343.9344Q301.57812 343.09064 302.70312 343.09064Q303.40625 343.09064 303.90625 343.3719Q304.42188 343.6375 304.64062 344.1219Q304.85938 344.59064 304.85938 345.5125L304.85938 349.45L303.8125 349.45L303.8125 345.5125Q303.8125 344.71564 303.46875 344.35626Q303.125 343.9969 302.5 343.9969Q302.03125 343.9969 301.60938 344.2469Q301.20312 344.48126 301.01562 344.90314Q300.84375 345.3094 300.84375 346.04376L300.84375 349.45L299.79688 349.45ZM306.78125 349.45L306.78125 343.23126L307.73438 343.23126L307.73438 344.16876Q308.09375 343.5125 308.39062 343.3094Q308.70312 343.09064 309.07812 343.09064Q309.60938 343.09064 310.15625 343.41876L309.79688 344.40314Q309.40625 344.16876 309.03125 344.16876Q308.67188 344.16876 308.39062 344.3875Q308.125 344.59064 308.01562 344.96564Q307.82812 345.52814 307.82812 346.1844L307.82812 349.45L306.78125 349.45ZM315.04688 347.45L316.14062 347.575Q315.89062 348.52814 315.1875 349.0594Q314.48438 349.59064 313.40625 349.59064Q312.04688 349.59064 311.23438 348.7469Q310.4375 347.90314 310.4375 346.3875Q310.4375 344.825 311.25 343.96564Q312.0625 343.09064 313.34375 343.09064Q314.59375 343.09064 315.375 343.9344Q316.17188 344.77814 316.17188 346.325Q316.17188 346.41876 316.17188 346.60626L311.53125 346.60626Q311.59375 347.6375 312.10938 348.1844Q312.625 348.71564 313.40625 348.71564Q313.98438 348.71564 314.39062 348.41876Q314.8125 348.10626 315.04688 347.45ZM311.59375 345.7469L315.0625 345.7469Q315.0 344.95 314.67188 344.5594Q314.15625 343.95 313.35938 343.95Q312.625 343.95 312.125 344.4344Q311.64062 344.91876 311.59375 345.7469ZM321.85938 348.6844Q321.26562 349.1844 320.71875 349.3875Q320.1875 349.59064 319.5625 349.59064Q318.53125 349.59064 317.98438 349.09064Q317.4375 348.59064 317.4375 347.8094Q317.4375 347.35626 317.64062 346.98126Q317.84375 346.59064 318.1875 346.3719Q318.53125 346.1375 318.95312 346.02814Q319.25 345.9344 319.89062 345.85626Q321.15625 345.71564 321.76562 345.4969Q321.76562 345.27814 321.76562 345.23126Q321.76562 344.575 321.46875 344.3094Q321.0625 343.96564 320.26562 343.96564Q319.53125 343.96564 319.17188 344.23126Q318.8125 344.48126 318.64062 345.1375L317.60938 344.9969Q317.75 344.34064 318.07812 343.9344Q318.40625 343.52814 319.01562 343.3094Q319.625 343.09064 320.42188 343.09064Q321.21875 343.09064 321.71875 343.27814Q322.21875 343.46564 322.45312 343.7469Q322.6875 344.02814 322.78125 344.46564Q322.82812 344.73126 322.82812 345.4344L322.82812 346.84064Q322.82812 348.3094 322.89062 348.7Q322.96875 349.09064 323.17188 349.45L322.0625 349.45Q321.90625 349.1219 321.85938 348.6844ZM321.76562 346.325Q321.1875 346.5594 320.04688 346.73126Q319.39062 346.825 319.125 346.95Q318.85938 347.0594 318.70312 347.27814Q318.5625 347.4969 318.5625 347.77814Q318.5625 348.2 318.875 348.48126Q319.20312 348.7625 319.8125 348.7625Q320.42188 348.7625 320.89062 348.4969Q321.375 348.23126 321.59375 347.7625Q321.76562 347.40314 321.76562 346.71564L321.76562 346.325ZM328.82812 349.45L328.82812 348.66876Q328.23438 349.59064 327.09375 349.59064Q326.34375 349.59064 325.71875 349.1844Q325.09375 348.7625 324.75 348.02814Q324.40625 347.29376 324.40625 346.34064Q324.40625 345.41876 324.71875 344.65314Q325.03125 343.8875 325.65625 343.4969Q326.28125 343.09064 327.04688 343.09064Q327.60938 343.09064 328.04688 343.325Q328.48438 343.5594 328.76562 343.9344L328.76562 340.85626L329.8125 340.85626L329.8125 349.45L328.82812 349.45ZM325.5 346.34064Q325.5 347.54376 326.0 348.1375Q326.5 348.71564 327.1875 348.71564Q327.875 348.71564 328.35938 348.15314Q328.84375 347.59064 328.84375 346.4344Q328.84375 345.15314 328.34375 344.5594Q327.85938 343.96564 327.14062 343.96564Q326.4375 343.96564 325.96875 344.54376Q325.5 345.10626 325.5 346.34064ZM341.0625 346.4344L342.1875 346.73126Q341.82812 348.1219 340.90625 348.85626Q339.98438 349.59064 338.64062 349.59064Q337.25 349.59064 336.375 349.02814Q335.5 348.46564 335.04688 347.40314Q334.59375 346.325 334.59375 345.09064Q334.59375 343.7469 335.10938 342.7469Q335.625 341.7469 336.5625 341.23126Q337.51562 340.71564 338.65625 340.71564Q339.9375 340.71564 340.8125 341.3719Q341.70312 342.02814 342.04688 343.21564L340.92188 343.48126Q340.625 342.54376 340.04688 342.1219Q339.48438 341.6844 338.625 341.6844Q337.64062 341.6844 336.96875 342.16876Q336.3125 342.6375 336.03125 343.4344Q335.76562 344.23126 335.76562 345.09064Q335.76562 346.1844 336.07812 346.9969Q336.40625 347.8094 337.07812 348.21564Q337.75 348.6219 338.54688 348.6219Q339.5 348.6219 340.15625 348.075Q340.82812 347.52814 341.0625 346.4344ZM343.40625 346.34064Q343.40625 344.60626 344.35938 343.77814Q345.15625 343.09064 346.3125 343.09064Q347.59375 343.09064 348.40625 343.9344Q349.23438 344.7625 349.23438 346.2469Q349.23438 347.45 348.875 348.1375Q348.51562 348.825 347.8125 349.21564Q347.125 349.59064 346.3125 349.59064Q345.01562 349.59064 344.20312 348.7625Q343.40625 347.91876 343.40625 346.34064ZM344.48438 346.34064Q344.48438 347.52814 345.0 348.1219Q345.53125 348.71564 346.3125 348.71564Q347.10938 348.71564 347.625 348.1219Q348.14062 347.52814 348.14062 346.3094Q348.14062 345.15314 347.60938 344.5594Q347.09375 343.96564 346.3125 343.96564Q345.53125 343.96564 345.0 344.5594Q344.48438 345.1375 344.48438 346.34064ZM354.875 349.45L354.875 348.52814Q354.14062 349.59064 352.89062 349.59064Q352.34375 349.59064 351.85938 349.3875Q351.39062 349.16876 351.15625 348.85626Q350.92188 348.52814 350.82812 348.0594Q350.76562 347.7625 350.76562 347.075L350.76562 343.23126L351.82812 343.23126L351.82812 346.6844Q351.82812 347.4969 351.89062 347.79376Q351.98438 348.2 352.29688 348.45Q352.625 348.6844 353.10938 348.6844Q353.57812 348.6844 353.98438 348.45Q354.40625 348.2 354.57812 347.77814Q354.76562 347.35626 354.76562 346.5594L354.76562 343.23126L355.8125 343.23126L355.8125 349.45L354.875 349.45ZM357.79688 349.45L357.79688 343.23126L358.73438 343.23126L358.73438 344.10626Q359.42188 343.09064 360.71875 343.09064Q361.28125 343.09064 361.75 343.29376Q362.23438 343.4969 362.46875 343.825Q362.70312 344.15314 362.79688 344.59064Q362.84375 344.8875 362.84375 345.6219L362.84375 349.45L361.79688 349.45L361.79688 345.66876Q361.79688 345.0125 361.67188 344.7Q361.54688 344.3875 361.23438 344.2Q360.92188 343.9969 360.5 343.9969Q359.82812 343.9969 359.32812 344.4344Q358.84375 344.85626 358.84375 346.04376L358.84375 349.45L357.79688 349.45ZM367.09375 348.5125L367.25 349.4344Q366.79688 349.52814 366.45312 349.52814Q365.875 349.52814 365.5625 349.35626Q365.25 349.16876 365.10938 348.8719Q364.98438 348.575 364.98438 347.6219L364.98438 344.04376L364.21875 344.04376L364.21875 343.23126L364.98438 343.23126L364.98438 341.6844L366.03125 341.0594L366.03125 343.23126L367.09375 343.23126L367.09375 344.04376L366.03125 344.04376L366.03125 347.6844Q366.03125 348.1375 366.07812 348.2625Q366.14062 348.3875 366.26562 348.46564Q366.39062 348.54376 366.625 348.54376Q366.8125 348.54376 367.09375 348.5125Z" fill-rule="nonzero"/><path fill="#000000" d="M26.784388 212.13646L26.690638 211.07396Q27.346888 210.99583 27.753138 210.71458Q28.159388 210.43333 28.425013 209.85521Q28.675013 209.26146 28.675013 208.52708Q28.675013 207.88646 28.487513 207.38646Q28.284388 206.88646 27.956263 206.65208Q27.612513 206.40208 27.221888 206.40208Q26.815638 206.40208 26.518763 206.63646Q26.206263 206.87083 26.003138 207.40208Q25.862513 207.76146 25.581263 208.94896Q25.300013 210.12083 25.050013 210.58958Q24.721888 211.21458 24.253138 211.51146Q23.768763 211.80833 23.175013 211.80833Q22.534388 211.80833 21.971888 211.44896Q21.393763 211.07396 21.112513 210.37083Q20.815638 209.65208 20.815638 208.79271Q20.815638 207.83958 21.128138 207.10521Q21.425013 206.37083 22.034388 205.98021Q22.628138 205.58958 23.378138 205.55833L23.456263 206.65208Q22.643763 206.74583 22.237513 207.26146Q21.815638 207.76146 21.815638 208.74583Q21.815638 209.77708 22.190638 210.24583Q22.565638 210.71458 23.096888 210.71458Q23.565638 210.71458 23.862513 210.38646Q24.159388 210.05833 24.471888 208.68333Q24.784388 207.29271 25.018763 206.77708Q25.378138 206.02708 25.909388 205.66771Q26.425013 205.30833 27.128138 205.30833Q27.815638 205.30833 28.425013 205.69896Q29.018763 206.08958 29.362513 206.82396Q29.690638 207.55833 29.690638 208.48021Q29.690638 209.65208 29.362513 210.44896Q29.018763 211.23021 28.331263 211.68333Q27.643763 212.12083 26.784388 212.13646ZM31.940638 203.88646L23.331263 203.88646L23.331263 202.93333L24.128138 202.93333Q23.659388 202.58958 23.425013 202.16771Q23.190638 201.73021 23.190638 201.12083Q23.190638 200.32396 23.596888 199.71458Q24.003138 199.10521 24.753138 198.80833Q25.503138 198.49583 26.393763 198.49583Q27.346888 198.49583 28.112513 198.83958Q28.878138 199.16771 29.284388 199.82396Q29.690638 200.48021 29.690638 201.19896Q29.690638 201.73021 29.471888 202.15208Q29.237513 202.57396 28.909388 202.83958L31.940638 202.83958L31.940638 203.88646ZM26.471888 202.93333Q27.675013 202.93333 28.253138 202.44896Q28.815638 201.96458 28.815638 201.27708Q28.815638 200.57396 28.221888 200.07396Q27.628138 199.57396 26.378138 199.57396Q25.190638 199.57396 24.612513 200.05833Q24.018763 200.54271 24.018763 201.23021Q24.018763 201.90208 24.643763 202.41771Q25.268763 202.93333 26.471888 202.93333ZM27.550013 192.63646L27.675013 191.54271Q28.628138 191.79271 29.159388 192.49583Q29.690638 193.19896 29.690638 194.27708Q29.690638 195.63646 28.846888 196.44896Q28.003138 197.24583 26.487513 197.24583Q24.925013 197.24583 24.065638 196.43333Q23.190638 195.62083 23.190638 194.33958Q23.190638 193.08958 24.034388 192.30833Q24.878138 191.51146 26.425013 191.51146Q26.518763 191.51146 26.706263 191.51146L26.706263 196.15208Q27.737513 196.08958 28.284388 195.57396Q28.815638 195.05833 28.815638 194.27708Q28.815638 193.69896 28.518763 193.29271Q28.206263 192.87083 27.550013 192.63646ZM25.846888 196.08958L25.846888 192.62083Q25.050013 192.68333 24.659388 193.01146Q24.050013 193.52708 24.050013 194.32396Q24.050013 195.05833 24.534388 195.55833Q25.018763 196.04271 25.846888 196.08958ZM27.550013 185.63646L27.675013 184.54271Q28.628138 184.79271 29.159388 185.49583Q29.690638 186.19896 29.690638 187.27708Q29.690638 188.63646 28.846888 189.44896Q28.003138 190.24583 26.487513 190.24583Q24.925013 190.24583 24.065638 189.43333Q23.190638 188.62083 23.190638 187.33958Q23.190638 186.08958 24.034388 185.30833Q24.878138 184.51146 26.425013 184.51146Q26.518763 184.51146 26.706263 184.51146L26.706263 189.15208Q27.737513 189.08958 28.284388 188.57396Q28.815638 188.05833 28.815638 187.27708Q28.815638 186.69896 28.518763 186.29271Q28.206263 185.87083 27.550013 185.63646ZM25.846888 189.08958L25.846888 185.62083Q25.050013 185.68333 24.659388 186.01146Q24.050013 186.52708 24.050013 187.32396Q24.050013 188.05833 24.534388 188.55833Q25.018763 189.04271 25.846888 189.08958ZM29.550013 178.85521L28.768763 178.85521Q29.690638 179.44896 29.690638 180.58958Q29.690638 181.33958 29.284388 181.96458Q28.862513 182.58958 28.128138 182.93333Q27.393763 183.27708 26.440638 183.27708Q25.518763 183.27708 24.753138 182.96458Q23.987513 182.65208 23.596888 182.02708Q23.190638 181.40208 23.190638 180.63646Q23.190638 180.07396 23.425013 179.63646Q23.659388 179.19896 24.034388 178.91771L20.956263 178.91771L20.956263 177.87083L29.550013 177.87083L29.550013 178.85521ZM26.440638 182.18333Q27.643763 182.18333 28.237513 181.68333Q28.815638 181.18333 28.815638 180.49583Q28.815638 179.80833 28.253138 179.32396Q27.690638 178.83958 26.534388 178.83958Q25.253138 178.83958 24.659388 179.33958Q24.065638 179.82396 24.065638 180.54271Q24.065638 181.24583 24.643763 181.71458Q25.206263 182.18333 26.440638 182.18333ZM29.550013 171.80833L28.628138 171.80833Q29.690638 172.54271 29.690638 173.79271Q29.690638 174.33958 29.487513 174.82396Q29.268763 175.29271 28.956263 175.52708Q28.628138 175.76146 28.159388 175.85521Q27.862513 175.91771 27.175013 175.91771L23.331263 175.91771L23.331263 174.85521L26.784388 174.85521Q27.596888 174.85521 27.893763 174.79271Q28.300013 174.69896 28.550013 174.38646Q28.784388 174.05833 28.784388 173.57396Q28.784388 173.10521 28.550013 172.69896Q28.300013 172.27708 27.878138 172.10521Q27.456263 171.91771 26.659388 171.91771L23.331263 171.91771L23.331263 170.87083L29.550013 170.87083L29.550013 171.80833ZM31.940638 168.88646L23.331263 168.88646L23.331263 167.93333L24.128138 167.93333Q23.659388 167.58958 23.425013 167.16771Q23.190638 166.73021 23.190638 166.12083Q23.190638 165.32396 23.596888 164.71458Q24.003138 164.10521 24.753138 163.80833Q25.503138 163.49583 26.393763 163.49583Q27.346888 163.49583 28.112513 163.83958Q28.878138 164.16771 29.284388 164.82396Q29.690638 165.48021 29.690638 166.19896Q29.690638 166.73021 29.471888 167.15208Q29.237513 167.57396 28.909388 167.83958L31.940638 167.83958L31.940638 168.88646ZM26.471888 167.93333Q27.675013 167.93333 28.253138 167.44896Q28.815638 166.96458 28.815638 166.27708Q28.815638 165.57396 28.221888 165.07396Q27.628138 164.57396 26.378138 164.57396Q25.190638 164.57396 24.612513 165.05833Q24.018763 165.54271 24.018763 166.23021Q24.018763 166.90208 24.643763 167.41771Q25.268763 167.93333 26.471888 167.93333Z" fill-rule="nonzero"/><path fill="#000000" d="M65.05 300.21564Q65.05 298.6844 65.3625 297.7625Q65.675 296.825 66.28438 296.325Q66.90938 295.825 67.84688 295.825Q68.53438 295.825 69.05 296.10626Q69.58125 296.3875 69.925 296.91876Q70.26875 297.4344 70.45625 298.1844Q70.64375 298.9344 70.64375 300.21564Q70.64375 301.73126 70.33125 302.65314Q70.03438 303.575 69.40938 304.09064Q68.8 304.59064 67.84688 304.59064Q66.6125 304.59064 65.89375 303.7Q65.05 302.6375 65.05 300.21564ZM66.12813 300.21564Q66.12813 302.325 66.62813 303.02814Q67.12813 303.73126 67.84688 303.73126Q68.58125 303.73126 69.06563 303.02814Q69.56563 302.325 69.56563 300.21564Q69.56563 298.09064 69.06563 297.40314Q68.58125 296.7 67.83125 296.7Q67.1125 296.7 66.675 297.3094Q66.12813 298.09064 66.12813 300.21564Z" fill-rule="nonzero"/><path fill="#000000" d="M70.59688 263.67883L70.59688 264.69446L64.90938 264.69446Q64.90938 264.31946 65.03438 263.96008Q65.25313 263.38196 65.72188 262.81946Q66.20625 262.25696 67.1125 261.52258Q68.51875 260.36633 69.00313 259.69446Q69.50313 259.02258 69.50313 258.42883Q69.50313 257.80383 69.05 257.38196Q68.59688 256.94446 67.87813 256.94446Q67.1125 256.94446 66.65938 257.39758Q66.20625 257.8507 66.19063 258.6632L65.1125 258.55383Q65.22188 257.33508 65.94063 256.71008Q66.675 256.06946 67.90938 256.06946Q69.14375 256.06946 69.8625 256.75696Q70.58125 257.44446 70.58125 258.46008Q70.58125 258.9757 70.3625 259.4757Q70.15938 259.96008 69.65938 260.52258Q69.175 261.06946 68.05 262.02258Q67.09688 262.81946 66.81563 263.11633Q66.55 263.39758 66.37813 263.67883L70.59688 263.67883Z" fill-rule="nonzero"/><path fill="#000000" d="M68.425 224.93889L68.425 222.87639L64.70625 222.87639L64.70625 221.90764L68.62813 216.34514L69.4875 216.34514L69.4875 221.90764L70.64375 221.90764L70.64375 222.87639L69.4875 222.87639L69.4875 224.93889L68.425 224.93889ZM68.425 221.90764L68.425 218.04826L65.7375 221.90764L68.425 221.90764Z" fill-rule="nonzero"/><path fill="#000000" d="M70.51875 178.69896L69.47188 178.77708Q69.33125 178.15208 69.08125 177.87083Q68.64375 177.41771 68.01875 177.41771Q67.51875 177.41771 67.12813 177.69896Q66.64375 178.07396 66.34688 178.77708Q66.06563 179.46458 66.05 180.74583Q66.425 180.16771 66.97188 179.88646Q67.53438 179.60521 68.14375 179.60521Q69.19063 179.60521 69.925 180.38646Q70.675 181.16771 70.675 182.38646Q70.675 183.19896 70.31563 183.90208Q69.97188 184.58958 69.3625 184.96458Q68.75313 185.32396 67.9875 185.32396Q66.65938 185.32396 65.83125 184.35521Q65.00313 183.38646 65.00313 181.16771Q65.00313 178.66771 65.925 177.54271Q66.72188 176.55833 68.08125 176.55833Q69.09688 176.55833 69.7375 177.13646Q70.39375 177.69896 70.51875 178.69896ZM66.22188 182.40208Q66.22188 182.94896 66.44063 183.44896Q66.675 183.93333 67.08125 184.19896Q67.50313 184.46458 67.97188 184.46458Q68.62813 184.46458 69.1125 183.93333Q69.59688 183.38646 69.59688 182.46458Q69.59688 181.57396 69.1125 181.05833Q68.64375 180.54271 67.925 180.54271Q67.20625 180.54271 66.70625 181.05833Q66.22188 181.57396 66.22188 182.40208Z" fill-rule="nonzero"/><path fill="#000000" d="M66.675 140.77153Q66.01875 140.52153 65.69063 140.08403Q65.37813 139.6309 65.37813 139.02153Q65.37813 138.08403 66.05 137.4434Q66.7375 136.80278 67.84688 136.80278Q68.97188 136.80278 69.65938 137.45903Q70.34688 138.11528 70.34688 139.05278Q70.34688 139.64653 70.03438 140.08403Q69.72188 140.52153 69.08125 140.77153Q69.87813 141.02153 70.28438 141.59966Q70.69063 142.17778 70.69063 142.97466Q70.69063 144.0684 69.90938 144.8184Q69.14375 145.5684 67.8625 145.5684Q66.59688 145.5684 65.81563 144.8184Q65.03438 144.0684 65.03438 142.9434Q65.03438 142.09966 65.45625 141.53716Q65.89375 140.97466 66.675 140.77153ZM66.45625 138.97466Q66.45625 139.58403 66.84688 139.97466Q67.25313 140.36528 67.87813 140.36528Q68.4875 140.36528 68.87813 139.99028Q69.26875 139.59966 69.26875 139.03716Q69.26875 138.45903 68.8625 138.0684Q68.45625 137.66216 67.8625 137.66216Q67.25313 137.66216 66.84688 138.05278Q66.45625 138.4434 66.45625 138.97466ZM66.12813 142.9434Q66.12813 143.39653 66.33125 143.8184Q66.55 144.24028 66.97188 144.47466Q67.39375 144.70903 67.87813 144.70903Q68.62813 144.70903 69.1125 144.22466Q69.6125 143.74028 69.6125 142.99028Q69.6125 142.22466 69.1125 141.72466Q68.6125 141.22466 67.84688 141.22466Q67.09688 141.22466 66.6125 141.72466Q66.12813 142.20903 66.12813 142.9434Z" fill-rule="nonzero"/><path fill="#000000" d="M62.01875 105.672226L60.971874 105.672226L60.971874 98.953476Q60.58125 99.31285 59.95625 99.68785Q59.346874 100.047226 58.8625 100.2191L58.8625 99.203476Q59.7375 98.7816 60.39375 98.203476Q61.065624 97.609726 61.346874 97.047226L62.01875 97.047226L62.01875 105.672226ZM65.05 101.43785Q65.05 99.9066 65.3625 98.984726Q65.675 98.047226 66.28438 97.547226Q66.90938 97.047226 67.84688 97.047226Q68.53438 97.047226 69.05 97.328476Q69.58125 97.609726 69.925 98.140976Q70.26875 98.6566 70.45625 99.4066Q70.64375 100.1566 70.64375 101.43785Q70.64375 102.953476 70.33125 103.87535Q70.03438 104.797226 69.40938 105.31285Q68.8 105.81285 67.84688 105.81285Q66.6125 105.81285 65.89375 104.922226Q65.05 103.859726 65.05 101.43785ZM66.12813 101.43785Q66.12813 103.547226 66.62813 104.25035Q67.12813 104.953476 67.84688 104.953476Q68.58125 104.953476 69.06563 104.25035Q69.56563 103.547226 69.56563 101.43785Q69.56563 99.31285 69.06563 98.62535Q68.58125 97.922226 67.83125 97.922226Q67.1125 97.922226 66.675 98.5316Q66.12813 99.31285 66.12813 101.43785Z" fill-rule="nonzero"/><path fill="#000000" d="M62.01875 65.916664L60.971874 65.916664L60.971874 59.197914Q60.58125 59.55729 59.95625 59.93229Q59.346874 60.291664 58.8625 60.46354L58.8625 59.447914Q59.7375 59.02604 60.39375 58.447914Q61.065624 57.854164 61.346874 57.291664L62.01875 57.291664L62.01875 65.916664ZM70.59688 64.90104L70.59688 65.916664L64.90938 65.916664Q64.90938 65.541664 65.03438 65.18229Q65.25313 64.604164 65.72188 64.041664Q66.20625 63.479164 67.1125 62.74479Q68.51875 61.58854 69.00313 60.916664Q69.50313 60.24479 69.50313 59.65104Q69.50313 59.02604 69.05 58.604164Q68.59688 58.166664 67.87813 58.166664Q67.1125 58.166664 66.65938 58.61979Q66.20625 59.072914 66.19063 59.885414L65.1125 59.77604Q65.22188 58.55729 65.94063 57.93229Q66.675 57.291664 67.90938 57.291664Q69.14375 57.291664 69.8625 57.979164Q70.58125 58.666664 70.58125 59.68229Q70.58125 60.197914 70.3625 60.697914Q70.15938 61.18229 69.65938 61.74479Q69.175 62.291664 68.05 63.24479Q67.09688 64.041664 66.81563 64.33854Q66.55 64.61979 66.37813 64.90104L70.59688 64.90104Z" fill-rule="nonzero"/><path fill="#000000" d="M93.33934 317.45L92.292465 317.45L92.292465 310.73126Q91.90184 311.09064 91.27684 311.46564Q90.667465 311.825 90.18309 311.9969L90.18309 310.98126Q91.05809 310.5594 91.71434 309.98126Q92.386215 309.3875 92.667465 308.825L93.33934 308.825L93.33934 317.45Z" fill-rule="nonzero"/><path fill="#000000" d="M124.55864 316.4344L124.55864 317.45L118.87114 317.45Q118.87114 317.075 118.99614 316.71564Q119.21489 316.1375 119.68364 315.575Q120.168015 315.0125 121.074265 314.27814Q122.480515 313.1219 122.96489 312.45Q123.46489 311.77814 123.46489 311.1844Q123.46489 310.5594 123.011765 310.1375Q122.55864 309.7 121.83989 309.7Q121.074265 309.7 120.62114 310.15314Q120.168015 310.60626 120.15239 311.41876L119.074265 311.3094Q119.18364 310.09064 119.90239 309.46564Q120.636765 308.825 121.87114 308.825Q123.105515 308.825 123.824265 309.5125Q124.543015 310.2 124.543015 311.21564Q124.543015 311.73126 124.324265 312.23126Q124.12114 312.71564 123.62114 313.27814Q123.136765 313.825 122.011765 314.77814Q121.05864 315.575 120.77739 315.8719Q120.511765 316.15314 120.33989 316.4344L124.55864 316.4344Z" fill-rule="nonzero"/><path fill="#000000" d="M148.65294 315.1844L149.71544 315.04376Q149.88731 315.9344 150.32481 316.34064Q150.76231 316.73126 151.38731 316.73126Q152.13731 316.73126 152.65294 316.21564Q153.16856 315.7 153.16856 314.9344Q153.16856 314.21564 152.68419 313.7469Q152.21544 313.2625 151.48106 313.2625Q151.18419 313.2625 150.73106 313.3875L150.85606 312.45Q150.96544 312.46564 151.02794 312.46564Q151.69981 312.46564 152.23106 312.1219Q152.77794 311.7625 152.77794 311.02814Q152.77794 310.45 152.38731 310.075Q151.99669 309.6844 151.37169 309.6844Q150.76231 309.6844 150.34044 310.075Q149.93419 310.46564 149.82481 311.23126L148.76231 311.04376Q148.94981 309.9969 149.63731 309.41876Q150.32481 308.825 151.34044 308.825Q152.04356 308.825 152.63731 309.1375Q153.23106 309.4344 153.54356 309.95Q153.85606 310.46564 153.85606 311.0594Q153.85606 311.60626 153.55919 312.075Q153.26231 312.52814 152.68419 312.79376Q153.43419 312.96564 153.85606 313.52814Q154.27794 314.075 154.27794 314.91876Q154.27794 316.04376 153.44981 316.825Q152.63731 317.60626 151.38731 317.60626Q150.26231 317.60626 149.51231 316.9344Q148.76231 316.2469 148.65294 315.1844Z" fill-rule="nonzero"/><path fill="#000000" d="M181.66911 317.45L181.66911 315.3875L177.95036 315.3875L177.95036 314.41876L181.87224 308.85626L182.73161 308.85626L182.73161 314.41876L183.88786 314.41876L183.88786 315.3875L182.73161 315.3875L182.73161 317.45L181.66911 317.45ZM181.66911 314.41876L181.66911 310.5594L178.98161 314.41876L181.66911 314.41876Z" fill-rule="nonzero"/><path fill="#000000" d="M207.93529 315.2L209.04466 315.10626Q209.16966 315.91876 209.60716 316.325Q210.06029 316.73126 210.70091 316.73126Q211.45091 316.73126 211.98216 316.15314Q212.51341 315.575 212.51341 314.6375Q212.51341 313.73126 211.99779 313.21564Q211.49779 312.6844 210.66966 312.6844Q210.16966 312.6844 209.74779 312.91876Q209.34154 313.15314 209.10716 313.5125L208.12279 313.3875L208.95091 308.98126L213.23216 308.98126L213.23216 309.98126L209.79466 309.98126L209.34154 312.29376Q210.10716 311.7469 210.95091 311.7469Q212.07591 311.7469 212.84154 312.52814Q213.62279 313.3094 213.62279 314.54376Q213.62279 315.7 212.95091 316.5594Q212.12279 317.59064 210.70091 317.59064Q209.52904 317.59064 208.77904 316.9344Q208.04466 316.27814 207.93529 315.2Z" fill-rule="nonzero"/><path fill="#000000" d="M243.04523 310.96564L241.99835 311.04376Q241.85773 310.41876 241.60773 310.1375Q241.17023 309.6844 240.54523 309.6844Q240.04523 309.6844 239.6546 309.96564Q239.17023 310.34064 238.87335 311.04376Q238.5921 311.73126 238.57648 313.0125Q238.95148 312.4344 239.49835 312.15314Q240.06085 311.8719 240.67023 311.8719Q241.7171 311.8719 242.45148 312.65314Q243.20148 313.4344 243.20148 314.65314Q243.20148 315.46564 242.8421 316.16876Q242.49835 316.85626 241.88898 317.23126Q241.2796 317.59064 240.51398 317.59064Q239.18585 317.59064 238.35773 316.6219Q237.5296 315.65314 237.5296 313.4344Q237.5296 310.9344 238.45148 309.8094Q239.24835 308.825 240.60773 308.825Q241.62335 308.825 242.26398 309.40314Q242.92023 309.96564 243.04523 310.96564ZM238.74835 314.66876Q238.74835 315.21564 238.9671 315.71564Q239.20148 316.2 239.60773 316.46564Q240.0296 316.73126 240.49835 316.73126Q241.1546 316.73126 241.63898 316.2Q242.12335 315.65314 242.12335 314.73126Q242.12335 313.84064 241.63898 313.325Q241.17023 312.8094 240.45148 312.8094Q239.73273 312.8094 239.23273 313.325Q238.74835 313.84064 238.74835 314.66876Z" fill-rule="nonzero"/><path fill="#000000" d="M267.28015 309.98126L267.28015 308.96564L272.84265 308.96564L272.84265 309.79376Q272.03015 310.66876 271.21765 312.1219Q270.42078 313.5594 269.98328 315.09064Q269.65515 316.16876 269.57703 317.45L268.48328 317.45Q268.4989 316.4344 268.8739 314.9969Q269.26453 313.5594 269.96765 312.23126Q270.6864 310.90314 271.4989 309.98126L267.28015 309.98126Z" fill-rule="nonzero"/><path fill="#000000" d="M298.48383 312.79376Q297.82758 312.54376 297.49945 312.10626Q297.18695 311.65314 297.18695 311.04376Q297.18695 310.10626 297.85883 309.46564Q298.54633 308.825 299.6557 308.825Q300.7807 308.825 301.4682 309.48126Q302.1557 310.1375 302.1557 311.075Q302.1557 311.66876 301.8432 312.10626Q301.5307 312.54376 300.89008 312.79376Q301.68695 313.04376 302.0932 313.6219Q302.49945 314.2 302.49945 314.9969Q302.49945 316.09064 301.7182 316.84064Q300.95258 317.59064 299.67133 317.59064Q298.4057 317.59064 297.62445 316.84064Q296.8432 316.09064 296.8432 314.96564Q296.8432 314.1219 297.26508 313.5594Q297.70258 312.9969 298.48383 312.79376ZM298.26508 310.9969Q298.26508 311.60626 298.6557 311.9969Q299.06195 312.3875 299.68695 312.3875Q300.29633 312.3875 300.68695 312.0125Q301.07758 311.6219 301.07758 311.0594Q301.07758 310.48126 300.67133 310.09064Q300.26508 309.6844 299.67133 309.6844Q299.06195 309.6844 298.6557 310.075Q298.26508 310.46564 298.26508 310.9969ZM297.93695 314.96564Q297.93695 315.41876 298.14008 315.84064Q298.35883 316.2625 298.7807 316.4969Q299.20258 316.73126 299.68695 316.73126Q300.43695 316.73126 300.92133 316.2469Q301.42133 315.7625 301.42133 315.0125Q301.42133 314.2469 300.92133 313.7469Q300.42133 313.2469 299.6557 313.2469Q298.9057 313.2469 298.42133 313.7469Q297.93695 314.23126 297.93695 314.96564Z" fill-rule="nonzero"/><path fill="#000000" d="M326.96875 317.45L325.92188 317.45L325.92188 310.73126Q325.53125 311.09064 324.90625 311.46564Q324.29688 311.825 323.8125 311.9969L323.8125 310.98126Q324.6875 310.5594 325.34375 309.98126Q326.01562 309.3875 326.29688 308.825L326.96875 308.825L326.96875 317.45ZM335.46875 310.96564L334.42188 311.04376Q334.28125 310.41876 334.03125 310.1375Q333.59375 309.6844 332.96875 309.6844Q332.46875 309.6844 332.07812 309.96564Q331.59375 310.34064 331.29688 311.04376Q331.01562 311.73126 331.0 313.0125Q331.375 312.4344 331.92188 312.15314Q332.48438 311.8719 333.09375 311.8719Q334.14062 311.8719 334.875 312.65314Q335.625 313.4344 335.625 314.65314Q335.625 315.46564 335.26562 316.16876Q334.92188 316.85626 334.3125 317.23126Q333.70312 317.59064 332.9375 317.59064Q331.60938 317.59064 330.78125 316.6219Q329.95312 315.65314 329.95312 313.4344Q329.95312 310.9344 330.875 309.8094Q331.67188 308.825 333.03125 308.825Q334.04688 308.825 334.6875 309.40314Q335.34375 309.96564 335.46875 310.96564ZM331.17188 314.66876Q331.17188 315.21564 331.39062 315.71564Q331.625 316.2 332.03125 316.46564Q332.45312 316.73126 332.92188 316.73126Q333.57812 316.73126 334.0625 316.2Q334.54688 315.65314 334.54688 314.73126Q334.54688 313.84064 334.0625 313.325Q333.59375 312.8094 332.875 312.8094Q332.15625 312.8094 331.65625 313.325Q331.17188 313.84064 331.17188 314.66876Z" fill-rule="nonzero"/><path fill="#000000" d="M358.18805 316.4344L358.18805 317.45L352.50055 317.45Q352.50055 317.075 352.62555 316.71564Q352.8443 316.1375 353.31305 315.575Q353.79742 315.0125 354.70367 314.27814Q356.10992 313.1219 356.5943 312.45Q357.0943 311.77814 357.0943 311.1844Q357.0943 310.5594 356.64117 310.1375Q356.18805 309.7 355.4693 309.7Q354.70367 309.7 354.25055 310.15314Q353.79742 310.60626 353.7818 311.41876L352.70367 311.3094Q352.81305 310.09064 353.5318 309.46564Q354.26617 308.825 355.50055 308.825Q356.73492 308.825 357.45367 309.5125Q358.17242 310.2 358.17242 311.21564Q358.17242 311.73126 357.95367 312.23126Q357.75055 312.71564 357.25055 313.27814Q356.76617 313.825 355.64117 314.77814Q354.68805 315.575 354.4068 315.8719Q354.14117 316.15314 353.9693 316.4344L358.18805 316.4344ZM363.01617 317.45L363.01617 315.3875L359.29742 315.3875L359.29742 314.41876L363.2193 308.85626L364.07867 308.85626L364.07867 314.41876L365.23492 314.41876L365.23492 315.3875L364.07867 315.3875L364.07867 317.45L363.01617 317.45ZM363.01617 314.41876L363.01617 310.5594L360.32867 314.41876L363.01617 314.41876Z" fill-rule="nonzero"/><path fill="#000000" d="M382.28235 315.1844L383.34485 315.04376Q383.51672 315.9344 383.95422 316.34064Q384.39172 316.73126 385.01672 316.73126Q385.76672 316.73126 386.28235 316.21564Q386.79797 315.7 386.79797 314.9344Q386.79797 314.21564 386.3136 313.7469Q385.84485 313.2625 385.11047 313.2625Q384.8136 313.2625 384.36047 313.3875L384.48547 312.45Q384.59485 312.46564 384.65735 312.46564Q385.32922 312.46564 385.86047 312.1219Q386.40735 311.7625 386.40735 311.02814Q386.40735 310.45 386.01672 310.075Q385.6261 309.6844 385.0011 309.6844Q384.39172 309.6844 383.96985 310.075Q383.5636 310.46564 383.45422 311.23126L382.39172 311.04376Q382.57922 309.9969 383.26672 309.41876Q383.95422 308.825 384.96985 308.825Q385.67297 308.825 386.26672 309.1375Q386.86047 309.4344 387.17297 309.95Q387.48547 310.46564 387.48547 311.0594Q387.48547 311.60626 387.1886 312.075Q386.89172 312.52814 386.3136 312.79376Q387.0636 312.96564 387.48547 313.52814Q387.90735 314.075 387.90735 314.91876Q387.90735 316.04376 387.07922 316.825Q386.26672 317.60626 385.01672 317.60626Q383.89172 317.60626 383.14172 316.9344Q382.39172 316.2469 382.28235 315.1844ZM394.82922 316.4344L394.82922 317.45L389.14172 317.45Q389.14172 317.075 389.26672 316.71564Q389.48547 316.1375 389.95422 315.575Q390.4386 315.0125 391.34485 314.27814Q392.7511 313.1219 393.23547 312.45Q393.73547 311.77814 393.73547 311.1844Q393.73547 310.5594 393.28235 310.1375Q392.82922 309.7 392.11047 309.7Q391.34485 309.7 390.89172 310.15314Q390.4386 310.60626 390.42297 311.41876L389.34485 311.3094Q389.45422 310.09064 390.17297 309.46564Q390.90735 308.825 392.14172 308.825Q393.3761 308.825 394.09485 309.5125Q394.8136 310.2 394.8136 311.21564Q394.8136 311.73126 394.59485 312.23126Q394.39172 312.71564 393.89172 313.27814Q393.40735 313.825 392.28235 314.77814Q391.32922 315.575 391.04797 315.8719Q390.78235 316.15314 390.61047 316.4344L394.82922 316.4344Z" fill-rule="nonzero"/><path fill="#000000" d="M415.29852 317.45L415.29852 315.3875L411.57977 315.3875L411.57977 314.41876L415.50165 308.85626L416.36102 308.85626L416.36102 314.41876L417.51727 314.41876L417.51727 315.3875L416.36102 315.3875L416.36102 317.45L415.29852 317.45ZM415.29852 314.41876L415.29852 310.5594L412.61102 314.41876L415.29852 314.41876ZM418.92352 313.21564Q418.92352 311.6844 419.23602 310.7625Q419.54852 309.825 420.1579 309.325Q420.7829 308.825 421.7204 308.825Q422.4079 308.825 422.92352 309.10626Q423.45477 309.3875 423.79852 309.91876Q424.14227 310.4344 424.32977 311.1844Q424.51727 311.9344 424.51727 313.21564Q424.51727 314.73126 424.20477 315.65314Q423.9079 316.575 423.2829 317.09064Q422.67352 317.59064 421.7204 317.59064Q420.48602 317.59064 419.76727 316.7Q418.92352 315.6375 418.92352 313.21564ZM420.00165 313.21564Q420.00165 315.325 420.50165 316.02814Q421.00165 316.73126 421.7204 316.73126Q422.45477 316.73126 422.93915 316.02814Q423.43915 315.325 423.43915 313.21564Q423.43915 311.09064 422.93915 310.40314Q422.45477 309.7 421.70477 309.7Q420.98602 309.7 420.54852 310.3094Q420.00165 311.09064 420.00165 313.21564Z" fill-rule="nonzero"/><path fill="#000000" d="M444.9397 317.45L444.9397 315.3875L441.22095 315.3875L441.22095 314.41876L445.14282 308.85626L446.0022 308.85626L446.0022 314.41876L447.15845 314.41876L447.15845 315.3875L446.0022 315.3875L446.0022 317.45L444.9397 317.45ZM444.9397 314.41876L444.9397 310.5594L442.2522 314.41876L444.9397 314.41876ZM450.1897 312.79376Q449.53345 312.54376 449.20532 312.10626Q448.89282 311.65314 448.89282 311.04376Q448.89282 310.10626 449.5647 309.46564Q450.2522 308.825 451.36157 308.825Q452.48657 308.825 453.17407 309.48126Q453.86157 310.1375 453.86157 311.075Q453.86157 311.66876 453.54907 312.10626Q453.23657 312.54376 452.59595 312.79376Q453.39282 313.04376 453.79907 313.6219Q454.20532 314.2 454.20532 314.9969Q454.20532 316.09064 453.42407 316.84064Q452.65845 317.59064 451.3772 317.59064Q450.11157 317.59064 449.33032 316.84064Q448.54907 316.09064 448.54907 314.96564Q448.54907 314.1219 448.97095 313.5594Q449.40845 312.9969 450.1897 312.79376ZM449.97095 310.9969Q449.97095 311.60626 450.36157 311.9969Q450.76782 312.3875 451.39282 312.3875Q452.0022 312.3875 452.39282 312.0125Q452.78345 311.6219 452.78345 311.0594Q452.78345 310.48126 452.3772 310.09064Q451.97095 309.6844 451.3772 309.6844Q450.76782 309.6844 450.36157 310.075Q449.97095 310.46564 449.97095 310.9969ZM449.64282 314.96564Q449.64282 315.41876 449.84595 315.84064Q450.0647 316.2625 450.48657 316.4969Q450.90845 316.73126 451.39282 316.73126Q452.14282 316.73126 452.6272 316.2469Q453.1272 315.7625 453.1272 315.0125Q453.1272 314.2469 452.6272 313.7469Q452.1272 313.2469 451.36157 313.2469Q450.61157 313.2469 450.1272 313.7469Q449.64282 314.23126 449.64282 314.96564Z" fill-rule="nonzero"/><path fill="#000000" d="M471.20587 315.2L472.31525 315.10626Q472.44025 315.91876 472.87775 316.325Q473.33087 316.73126 473.9715 316.73126Q474.7215 316.73126 475.25275 316.15314Q475.784 315.575 475.784 314.6375Q475.784 313.73126 475.26837 313.21564Q474.76837 312.6844 473.94025 312.6844Q473.44025 312.6844 473.01837 312.91876Q472.61212 313.15314 472.37775 313.5125L471.39337 313.3875L472.2215 308.98126L476.50275 308.98126L476.50275 309.98126L473.06525 309.98126L472.61212 312.29376Q473.37775 311.7469 474.2215 311.7469Q475.3465 311.7469 476.11212 312.52814Q476.89337 313.3094 476.89337 314.54376Q476.89337 315.7 476.2215 316.5594Q475.39337 317.59064 473.9715 317.59064Q472.79962 317.59064 472.04962 316.9344Q471.31525 316.27814 471.20587 315.2ZM483.67462 310.96564L482.62775 311.04376Q482.48712 310.41876 482.23712 310.1375Q481.79962 309.6844 481.17462 309.6844Q480.67462 309.6844 480.284 309.96564Q479.79962 310.34064 479.50275 311.04376Q479.2215 311.73126 479.20587 313.0125Q479.58087 312.4344 480.12775 312.15314Q480.69025 311.8719 481.29962 311.8719Q482.3465 311.8719 483.08087 312.65314Q483.83087 313.4344 483.83087 314.65314Q483.83087 315.46564 483.4715 316.16876Q483.12775 316.85626 482.51837 317.23126Q481.909 317.59064 481.14337 317.59064Q479.81525 317.59064 478.98712 316.6219Q478.159 315.65314 478.159 313.4344Q478.159 310.9344 479.08087 309.8094Q479.87775 308.825 481.23712 308.825Q482.25275 308.825 482.89337 309.40314Q483.54962 309.96564 483.67462 310.96564ZM479.37775 314.66876Q479.37775 315.21564 479.5965 315.71564Q479.83087 316.2 480.23712 316.46564Q480.659 316.73126 481.12775 316.73126Q481.784 316.73126 482.26837 316.2Q482.75275 315.65314 482.75275 314.73126Q482.75275 313.84064 482.26837 313.325Q481.79962 312.8094 481.08087 312.8094Q480.36212 312.8094 479.86212 313.325Q479.37775 313.84064 479.37775 314.66876Z" fill-rule="nonzero"/><path fill="#000000" d="M506.3158 310.96564L505.26892 311.04376Q505.1283 310.41876 504.8783 310.1375Q504.4408 309.6844 503.8158 309.6844Q503.3158 309.6844 502.92517 309.96564Q502.4408 310.34064 502.14392 311.04376Q501.86267 311.73126 501.84705 313.0125Q502.22205 312.4344 502.76892 312.15314Q503.33142 311.8719 503.9408 311.8719Q504.98767 311.8719 505.72205 312.65314Q506.47205 313.4344 506.47205 314.65314Q506.47205 315.46564 506.11267 316.16876Q505.76892 316.85626 505.15955 317.23126Q504.55017 317.59064 503.78455 317.59064Q502.45642 317.59064 501.6283 316.6219Q500.80017 315.65314 500.80017 313.4344Q500.80017 310.9344 501.72205 309.8094Q502.51892 308.825 503.8783 308.825Q504.89392 308.825 505.53455 309.40314Q506.1908 309.96564 506.3158 310.96564ZM502.01892 314.66876Q502.01892 315.21564 502.23767 315.71564Q502.47205 316.2 502.8783 316.46564Q503.30017 316.73126 503.76892 316.73126Q504.42517 316.73126 504.90955 316.2Q505.39392 315.65314 505.39392 314.73126Q505.39392 313.84064 504.90955 313.325Q504.4408 312.8094 503.72205 312.8094Q503.0033 312.8094 502.5033 313.325Q502.01892 313.84064 502.01892 314.66876ZM511.22205 317.45L511.22205 315.3875L507.5033 315.3875L507.5033 314.41876L511.42517 308.85626L512.28455 308.85626L512.28455 314.41876L513.4408 314.41876L513.4408 315.3875L512.28455 315.3875L512.28455 317.45L511.22205 317.45ZM511.22205 314.41876L511.22205 310.5594L508.53455 314.41876L511.22205 314.41876Z" fill-rule="nonzero"/><path fill="#000000" d="M530.5507 309.98126L530.5507 308.96564L536.1132 308.96564L536.1132 309.79376Q535.3007 310.66876 534.4882 312.1219Q533.69135 313.5594 533.25385 315.09064Q532.9257 316.16876 532.8476 317.45L531.75385 317.45Q531.7695 316.4344 532.1445 314.9969Q532.5351 313.5594 533.2382 312.23126Q533.957 310.90314 534.7695 309.98126L530.5507 309.98126ZM543.0351 316.4344L543.0351 317.45L537.3476 317.45Q537.3476 317.075 537.4726 316.71564Q537.69135 316.1375 538.1601 315.575Q538.6445 315.0125 539.5507 314.27814Q540.957 313.1219 541.44135 312.45Q541.94135 311.77814 541.94135 311.1844Q541.94135 310.5594 541.4882 310.1375Q541.0351 309.7 540.31635 309.7Q539.5507 309.7 539.0976 310.15314Q538.6445 310.60626 538.62885 311.41876L537.5507 311.3094Q537.6601 310.09064 538.37885 309.46564Q539.1132 308.825 540.3476 308.825Q541.582 308.825 542.3007 309.5125Q543.0195 310.2 543.0195 311.21564Q543.0195 311.73126 542.8007 312.23126Q542.5976 312.71564 542.0976 313.27814Q541.6132 313.825 540.4882 314.77814Q539.5351 315.575 539.25385 315.8719Q538.9882 316.15314 538.81635 316.4344L543.0351 316.4344Z" fill-rule="nonzero"/><path fill="#000000" d="M561.7544 312.79376Q561.09814 312.54376 560.77 312.10626Q560.4575 311.65314 560.4575 311.04376Q560.4575 310.10626 561.1294 309.46564Q561.8169 308.825 562.9263 308.825Q564.0513 308.825 564.7388 309.48126Q565.4263 310.1375 565.4263 311.075Q565.4263 311.66876 565.1138 312.10626Q564.8013 312.54376 564.16064 312.79376Q564.9575 313.04376 565.3638 313.6219Q565.77 314.2 565.77 314.9969Q565.77 316.09064 564.9888 316.84064Q564.22314 317.59064 562.9419 317.59064Q561.6763 317.59064 560.895 316.84064Q560.1138 316.09064 560.1138 314.96564Q560.1138 314.1219 560.53564 313.5594Q560.97314 312.9969 561.7544 312.79376ZM561.53564 310.9969Q561.53564 311.60626 561.9263 311.9969Q562.3325 312.3875 562.9575 312.3875Q563.5669 312.3875 563.9575 312.0125Q564.34814 311.6219 564.34814 311.0594Q564.34814 310.48126 563.9419 310.09064Q563.53564 309.6844 562.9419 309.6844Q562.3325 309.6844 561.9263 310.075Q561.53564 310.46564 561.53564 310.9969ZM561.2075 314.96564Q561.2075 315.41876 561.41064 315.84064Q561.6294 316.2625 562.0513 316.4969Q562.47314 316.73126 562.9575 316.73126Q563.7075 316.73126 564.1919 316.2469Q564.6919 315.7625 564.6919 315.0125Q564.6919 314.2469 564.1919 313.7469Q563.6919 313.2469 562.9263 313.2469Q562.1763 313.2469 561.6919 313.7469Q561.2075 314.23126 561.2075 314.96564ZM567.1294 313.21564Q567.1294 311.6844 567.4419 310.7625Q567.7544 309.825 568.3638 309.325Q568.9888 308.825 569.9263 308.825Q570.6138 308.825 571.1294 309.10626Q571.66064 309.3875 572.0044 309.91876Q572.34814 310.4344 572.53564 311.1844Q572.72314 311.9344 572.72314 313.21564Q572.72314 314.73126 572.41064 315.65314Q572.1138 316.575 571.4888 317.09064Q570.8794 317.59064 569.9263 317.59064Q568.6919 317.59064 567.97314 316.7Q567.1294 315.6375 567.1294 313.21564ZM568.2075 313.21564Q568.2075 315.325 568.7075 316.02814Q569.2075 316.73126 569.9263 316.73126Q570.66064 316.73126 571.145 316.02814Q571.645 315.325 571.645 313.21564Q571.645 311.09064 571.145 310.40314Q570.66064 309.7 569.91064 309.7Q569.1919 309.7 568.7544 310.3094Q568.2075 311.09064 568.2075 313.21564Z" fill-rule="nonzero"/><path fill="#757575" d="M174.21875 32.89375L177.03125 32.6125Q177.29688 34.034374 178.0625 34.70625Q178.84375 35.3625 180.15625 35.3625Q181.5625 35.3625 182.26562 34.76875Q182.96875 34.175 182.96875 33.39375Q182.96875 32.878124 182.67188 32.534374Q182.375 32.175 181.64062 31.909374Q181.125 31.721874 179.32812 31.284374Q177.0 30.70625 176.0625 29.8625Q174.73438 28.675 174.73438 26.9875Q174.73438 25.89375 175.35938 24.940624Q175.98438 23.9875 177.14062 23.4875Q178.3125 22.9875 179.96875 22.9875Q182.65625 22.9875 184.01562 24.175Q185.39062 25.346874 185.45312 27.33125L182.5625 27.45625Q182.375 26.346874 181.76562 25.8625Q181.15625 25.378124 179.9375 25.378124Q178.67188 25.378124 177.96875 25.89375Q177.5 26.2375 177.5 26.784374Q177.5 27.3 177.9375 27.659374Q178.48438 28.1125 180.59375 28.6125Q182.70312 29.1125 183.70312 29.64375Q184.71875 30.175 185.28125 31.096874Q185.85938 32.01875 185.85938 33.378124Q185.85938 34.6125 185.17188 35.690624Q184.5 36.753124 183.25 37.284374Q182.0 37.8 180.125 37.8Q177.42188 37.8 175.95312 36.55Q174.5 35.3 174.21875 32.89375ZM187.85938 27.175L190.42188 27.175L190.42188 28.70625Q190.92188 27.925 191.76562 27.440624Q192.60938 26.940624 193.65625 26.940624Q195.45312 26.940624 196.70312 28.3625Q197.96875 29.76875 197.96875 32.3Q197.96875 34.909374 196.70312 36.346874Q195.4375 37.784374 193.625 37.784374Q192.76562 37.784374 192.0625 37.440624Q191.375 37.096874 190.60938 36.26875L190.60938 41.503124L187.85938 41.503124L187.85938 27.175ZM190.57812 32.190624Q190.57812 33.940624 191.26562 34.784374Q191.95312 35.6125 192.95312 35.6125Q193.90625 35.6125 194.54688 34.846874Q195.1875 34.065624 195.1875 32.33125Q195.1875 30.690624 194.53125 29.909374Q193.875 29.1125 192.90625 29.1125Q191.90625 29.1125 191.23438 29.89375Q190.57812 30.659374 190.57812 32.190624ZM205.9375 34.253124L208.67188 34.70625Q208.15625 36.20625 207.01562 37.003124Q205.875 37.784374 204.17188 37.784374Q201.45312 37.784374 200.15625 36.01875Q199.14062 34.596874 199.14062 32.440624Q199.14062 29.8625 200.48438 28.409374Q201.82812 26.940624 203.89062 26.940624Q206.20312 26.940624 207.53125 28.471874Q208.875 30.003124 208.82812 33.159374L201.95312 33.159374Q201.98438 34.378124 202.60938 35.065624Q203.25 35.7375 204.1875 35.7375Q204.84375 35.7375 205.28125 35.39375Q205.71875 35.034374 205.9375 34.253124ZM206.09375 31.471874Q206.0625 30.284374 205.46875 29.675Q204.89062 29.05 204.0625 29.05Q203.15625 29.05 202.57812 29.690624Q201.98438 30.346874 202.0 31.471874L206.09375 31.471874ZM216.9375 34.253124L219.67188 34.70625Q219.15625 36.20625 218.01562 37.003124Q216.875 37.784374 215.17188 37.784374Q212.45312 37.784374 211.15625 36.01875Q210.14062 34.596874 210.14062 32.440624Q210.14062 29.8625 211.48438 28.409374Q212.82812 26.940624 214.89062 26.940624Q217.20312 26.940624 218.53125 28.471874Q219.875 30.003124 219.82812 33.159374L212.95312 33.159374Q212.98438 34.378124 213.60938 35.065624Q214.25 35.7375 215.1875 35.7375Q215.84375 35.7375 216.28125 35.39375Q216.71875 35.034374 216.9375 34.253124ZM217.09375 31.471874Q217.0625 30.284374 216.46875 29.675Q215.89062 29.05 215.0625 29.05Q214.15625 29.05 213.57812 29.690624Q212.98438 30.346874 213.0 31.471874L217.09375 31.471874ZM231.45312 37.55L228.90625 37.55L228.90625 36.01875Q228.26562 36.909374 227.39062 37.346874Q226.53125 37.784374 225.65625 37.784374Q223.875 37.784374 222.59375 36.346874Q221.32812 34.909374 221.32812 32.33125Q221.32812 29.690624 222.5625 28.315624Q223.79688 26.940624 225.70312 26.940624Q227.4375 26.940624 228.70312 28.39375L228.70312 23.2375L231.45312 23.2375L231.45312 37.55ZM224.125 32.14375Q224.125 33.8 224.57812 34.534374Q225.25 35.6125 226.4375 35.6125Q227.39062 35.6125 228.04688 34.815624Q228.71875 34.003124 228.71875 32.409374Q228.71875 30.6125 228.0625 29.83125Q227.42188 29.05 226.42188 29.05Q225.4375 29.05 224.78125 29.83125Q224.125 30.596874 224.125 32.14375ZM240.76562 37.55L240.76562 36.003124Q240.20312 36.83125 239.26562 37.315624Q238.34375 37.784374 237.32812 37.784374Q236.28125 37.784374 235.45312 37.33125Q234.625 36.8625 234.25 36.034374Q233.875 35.20625 233.875 33.7375L233.875 27.175L236.625 27.175L236.625 31.940624Q236.625 34.128124 236.76562 34.628124Q236.92188 35.1125 237.3125 35.409374Q237.71875 35.690624 238.34375 35.690624Q239.04688 35.690624 239.59375 35.315624Q240.15625 34.925 240.35938 34.3625Q240.5625 33.784374 240.5625 31.55L240.5625 27.175L243.3125 27.175L243.3125 37.55L240.76562 37.55ZM245.85938 27.175L248.42188 27.175L248.42188 28.70625Q248.92188 27.925 249.76562 27.440624Q250.60938 26.940624 251.65625 26.940624Q253.45312 26.940624 254.70312 28.3625Q255.96875 29.76875 255.96875 32.3Q255.96875 34.909374 254.70312 36.346874Q253.4375 37.784374 251.625 37.784374Q250.76562 37.784374 250.0625 37.440624Q249.375 37.096874 248.60938 36.26875L248.60938 41.503124L245.85938 41.503124L245.85938 27.175ZM248.57812 32.190624Q248.57812 33.940624 249.26562 34.784374Q249.95312 35.6125 250.95312 35.6125Q251.90625 35.6125 252.54688 34.846874Q253.1875 34.065624 253.1875 32.33125Q253.1875 30.690624 252.53125 29.909374Q251.875 29.1125 250.90625 29.1125Q249.90625 29.1125 249.23438 29.89375Q248.57812 30.659374 248.57812 32.190624ZM266.78125 37.55L262.60938 27.175L265.48438 27.175L267.4375 32.471874L268.01562 34.2375Q268.23438 33.565624 268.29688 33.346874Q268.42188 32.909374 268.57812 32.471874L270.5625 27.175L273.375 27.175L269.26562 37.55L266.78125 37.55ZM273.96875 34.596874L276.71875 34.175Q276.90625 34.971874 277.4375 35.39375Q277.96875 35.8 278.9375 35.8Q280.0 35.8 280.54688 35.409374Q280.90625 35.14375 280.90625 34.675Q280.90625 34.3625 280.70312 34.159374Q280.5 33.971874 279.79688 33.8Q276.46875 33.065624 275.57812 32.45625Q274.34375 31.628124 274.34375 30.128124Q274.34375 28.784374 275.40625 27.8625Q276.48438 26.940624 278.71875 26.940624Q280.84375 26.940624 281.875 27.64375Q282.92188 28.33125 283.3125 29.690624L280.71875 30.159374Q280.54688 29.565624 280.07812 29.2375Q279.625 28.909374 278.76562 28.909374Q277.6875 28.909374 277.21875 29.221874Q276.90625 29.440624 276.90625 29.76875Q276.90625 30.065624 277.17188 30.26875Q277.54688 30.55 279.73438 31.05Q281.92188 31.55 282.79688 32.26875Q283.65625 33.003124 283.65625 34.3Q283.65625 35.7375 282.46875 36.76875Q281.28125 37.784374 278.9375 37.784374Q276.82812 37.784374 275.57812 36.925Q274.34375 36.065624 273.96875 34.596874ZM285.9375 37.55L285.9375 34.8L288.6875 34.8L288.6875 37.55L285.9375 37.55ZM301.17188 37.55L301.17188 25.659374L296.9375 25.659374L296.9375 23.2375L308.3125 23.2375L308.3125 25.659374L304.0625 25.659374L304.0625 37.55L301.17188 37.55ZM313.67188 23.2375L313.67188 28.503124Q315.0 26.940624 316.84375 26.940624Q317.79688 26.940624 318.54688 27.3Q319.3125 27.64375 319.70312 28.190624Q320.09375 28.7375 320.23438 29.409374Q320.375 30.065624 320.375 31.471874L320.375 37.55L317.625 37.55L317.625 32.065624Q317.625 30.440624 317.46875 30.003124Q317.3125 29.565624 316.90625 29.315624Q316.51562 29.05 315.92188 29.05Q315.25 29.05 314.70312 29.378124Q314.17188 29.70625 313.92188 30.378124Q313.67188 31.05 313.67188 32.346874L313.67188 37.55L310.92188 37.55L310.92188 23.2375L313.67188 23.2375ZM325.5625 37.55L322.8125 37.55L322.8125 27.175L325.375 27.175L325.375 28.659374Q326.01562 27.6125 326.53125 27.284374Q327.0625 26.940624 327.73438 26.940624Q328.67188 26.940624 329.53125 27.45625L328.6875 29.846874Q328.0 29.409374 327.40625 29.409374Q326.82812 29.409374 326.42188 29.721874Q326.01562 30.034374 325.78125 30.878124Q325.5625 31.70625 325.5625 34.346874L325.5625 37.55ZM336.9375 34.253124L339.67188 34.70625Q339.15625 36.20625 338.01562 37.003124Q336.875 37.784374 335.17188 37.784374Q332.45312 37.784374 331.15625 36.01875Q330.14062 34.596874 330.14062 32.440624Q330.14062 29.8625 331.48438 28.409374Q332.82812 26.940624 334.89062 26.940624Q337.20312 26.940624 338.53125 28.471874Q339.875 30.003124 339.82812 33.159374L332.95312 33.159374Q332.98438 34.378124 333.60938 35.065624Q334.25 35.7375 335.1875 35.7375Q335.84375 35.7375 336.28125 35.39375Q336.71875 35.034374 336.9375 34.253124ZM337.09375 31.471874Q337.0625 30.284374 336.46875 29.675Q335.89062 29.05 335.0625 29.05Q334.15625 29.05 333.57812 29.690624Q332.98438 30.346874 333.0 31.471874L337.09375 31.471874ZM343.98438 30.346874L341.5 29.89375Q341.92188 28.39375 342.9375 27.675Q343.96875 26.940624 345.98438 26.940624Q347.82812 26.940624 348.71875 27.378124Q349.625 27.815624 349.98438 28.4875Q350.35938 29.14375 350.35938 30.940624L350.32812 34.14375Q350.32812 35.503124 350.45312 36.159374Q350.59375 36.8 350.95312 37.55L348.23438 37.55Q348.125 37.26875 347.96875 36.7375Q347.90625 36.4875 347.875 36.409374Q347.17188 37.096874 346.35938 37.440624Q345.5625 37.784374 344.65625 37.784374Q343.0625 37.784374 342.14062 36.925Q341.21875 36.05 341.21875 34.721874Q341.21875 33.83125 341.625 33.14375Q342.04688 32.45625 342.79688 32.096874Q343.5625 31.721874 345.0 31.45625Q346.92188 31.096874 347.65625 30.784374L347.65625 30.503124Q347.65625 29.721874 347.26562 29.39375Q346.875 29.05 345.79688 29.05Q345.0625 29.05 344.64062 29.33125Q344.23438 29.6125 343.98438 30.346874ZM347.65625 32.565624Q347.125 32.7375 345.98438 32.9875Q344.84375 33.2375 344.5 33.471874Q343.95312 33.846874 343.95312 34.440624Q343.95312 35.003124 344.375 35.425Q344.8125 35.846874 345.48438 35.846874Q346.21875 35.846874 346.89062 35.3625Q347.39062 34.9875 347.54688 34.45625Q347.65625 34.096874 347.65625 33.1125L347.65625 32.565624ZM362.45312 37.55L359.90625 37.55L359.90625 36.01875Q359.26562 36.909374 358.39062 37.346874Q357.53125 37.784374 356.65625 37.784374Q354.875 37.784374 353.59375 36.346874Q352.32812 34.909374 352.32812 32.33125Q352.32812 29.690624 353.5625 28.315624Q354.79688 26.940624 356.70312 26.940624Q358.4375 26.940624 359.70312 28.39375L359.70312 23.2375L362.45312 23.2375L362.45312 37.55ZM355.125 32.14375Q355.125 33.8 355.57812 34.534374Q356.25 35.6125 357.4375 35.6125Q358.39062 35.6125 359.04688 34.815624Q359.71875 34.003124 359.71875 32.409374Q359.71875 30.6125 359.0625 29.83125Q358.42188 29.05 357.42188 29.05Q356.4375 29.05 355.78125 29.83125Q355.125 30.596874 355.125 32.14375ZM380.10938 32.284374L382.92188 33.175Q382.28125 35.51875 380.78125 36.659374Q379.28125 37.8 376.96875 37.8Q374.125 37.8 372.28125 35.846874Q370.45312 33.89375 370.45312 30.51875Q370.45312 26.940624 372.29688 24.971874Q374.14062 22.9875 377.14062 22.9875Q379.78125 22.9875 381.42188 24.534374Q382.39062 25.45625 382.875 27.175L380.01562 27.8625Q379.76562 26.753124 378.95312 26.1125Q378.15625 25.45625 377.0 25.45625Q375.40625 25.45625 374.40625 26.596874Q373.42188 27.7375 373.42188 30.3Q373.42188 33.01875 374.39062 34.175Q375.375 35.315624 376.9375 35.315624Q378.09375 35.315624 378.92188 34.596874Q379.75 33.8625 380.10938 32.284374ZM384.29688 32.221874Q384.29688 30.846874 384.96875 29.565624Q385.65625 28.284374 386.89062 27.6125Q388.125 26.940624 389.64062 26.940624Q392.0 26.940624 393.5 28.471874Q395.0 30.003124 395.0 32.33125Q395.0 34.690624 393.48438 36.2375Q391.96875 37.784374 389.65625 37.784374Q388.23438 37.784374 386.9375 37.14375Q385.65625 36.4875 384.96875 35.253124Q384.29688 34.003124 384.29688 32.221874ZM387.10938 32.3625Q387.10938 33.909374 387.84375 34.7375Q388.57812 35.55 389.65625 35.55Q390.73438 35.55 391.45312 34.7375Q392.1875 33.909374 392.1875 32.346874Q392.1875 30.815624 391.45312 30.003124Q390.73438 29.175 389.65625 29.175Q388.57812 29.175 387.84375 30.003124Q387.10938 30.815624 387.10938 32.3625ZM403.76562 37.55L403.76562 36.003124Q403.20312 36.83125 402.26562 37.315624Q401.34375 37.784374 400.32812 37.784374Q399.28125 37.784374 398.45312 37.33125Q397.625 36.8625 397.25 36.034374Q396.875 35.20625 396.875 33.7375L396.875 27.175L399.625 27.175L399.625 31.940624Q399.625 34.128124 399.76562 34.628124Q399.92188 35.1125 400.3125 35.409374Q400.71875 35.690624 401.34375 35.690624Q402.04688 35.690624 402.59375 35.315624Q403.15625 34.925 403.35938 34.3625Q403.5625 33.784374 403.5625 31.55L403.5625 27.175L406.3125 27.175L406.3125 37.55L403.76562 37.55ZM418.375 37.55L415.625 37.55L415.625 32.253124Q415.625 30.58125 415.45312 30.096874Q415.28125 29.596874 414.875 29.33125Q414.48438 29.05 413.92188 29.05Q413.21875 29.05 412.64062 29.440624Q412.07812 29.83125 411.85938 30.471874Q411.65625 31.1125 411.65625 32.846874L411.65625 37.55L408.92188 37.55L408.92188 27.175L411.46875 27.175L411.46875 28.70625Q412.82812 26.940624 414.89062 26.940624Q415.79688 26.940624 416.54688 27.26875Q417.29688 27.596874 417.67188 28.1125Q418.0625 28.6125 418.21875 29.26875Q418.375 29.909374 418.375 31.096874L418.375 37.55ZM425.6875 27.175L425.6875 29.3625L423.8125 29.3625L423.8125 33.55Q423.8125 34.815624 423.85938 35.034374Q423.92188 35.2375 424.10938 35.378124Q424.3125 35.503124 424.57812 35.503124Q424.95312 35.503124 425.6875 35.2375L425.92188 37.378124Q424.95312 37.784374 423.75 37.784374Q423.0 37.784374 422.40625 37.534374Q421.8125 37.284374 421.53125 36.89375Q421.26562 36.4875 421.15625 35.815624Q421.0625 35.346874 421.0625 33.89375L421.0625 29.3625L419.79688 29.3625L419.79688 27.175L421.0625 27.175L421.0625 25.1125L423.8125 23.51875L423.8125 27.175L425.6875 27.175Z" fill-rule="nonzero"/></svg>